<?xml version="1.0" encoding="UTF-8" standalone="no"?>
<!-- Created with Inkscape (http://www.inkscape.org/) -->

<svg
   version="1.1"
   id="svg18"
   width="600"
   height="791.69733"
   viewBox="0 0 599.99999 791.69732"
   sodipodi:docname="Crux-Assets-V1.ai"
   xmlns:inkscape="http://www.inkscape.org/namespaces/inkscape"
   xmlns:sodipodi="http://sodipodi.sourceforge.net/DTD/sodipodi-0.dtd"
   xmlns="http://www.w3.org/2000/svg"
   xmlns:svg="http://www.w3.org/2000/svg">
  <defs
     id="defs22">
    <clipPath
       clipPathUnits="userSpaceOnUse"
       id="clipPath386">
      <path
         d="M 0,595.276 H 841.89 V 0 H 0 Z"
         id="path384" />
    </clipPath>
  </defs>
  <sodipodi:namedview
     id="namedview20"
     pagecolor="#ffffff"
     bordercolor="#000000"
     borderopacity="0.25"
     inkscape:showpageshadow="2"
     inkscape:pageopacity="0.0"
     inkscape:pagecheckerboard="0"
     inkscape:deskcolor="#d1d1d1"
     showgrid="false" />
  <g
     id="g218"
     inkscape:groupmode="layer"
     inkscape:label="Page 3"
     transform="matrix(1.3333333,0,0,-1.3333333,-7.8820979e-5,791.69731)">
    <path
       d="M 0,0 H 841.89 V 593.773 H 0 Z"
       style="fill:#1e1e1e;fill-opacity:1;fill-rule:nonzero;stroke:none"
       id="path220" />
    <g
       id="g222"
       transform="translate(430.2139,210.4625)">
      <path
         d="M 0,0 2.272,-2.272 0,-4.543 l -12.795,-12.795 7.179,-7.179 12.795,12.795 2.272,2.271 7.178,7.179 -7.178,7.179 -2.272,2.272 -12.795,12.795 -7.179,-7.179 z"
         style="fill:#f24a00;fill-opacity:1;fill-rule:nonzero;stroke:none"
         id="path224" />
    </g>
    <g
       id="g234"
       transform="translate(326.4434,111.5669)">
      <path
         d="M 0,0 9.19,13.911 0.719,19.507 -8.471,5.596 Z"
         style="fill:#ffffff;fill-opacity:1;fill-rule:nonzero;stroke:none"
         id="path236" />
    </g>
    <g
       id="g238"
       transform="translate(75.6125,171.3179)">
      <path
         d="m 0,0 -5.596,-8.471 13.792,-9.111 5.596,8.47 z"
         style="fill:#f29100;fill-opacity:1;fill-rule:nonzero;stroke:none"
         id="path240" />
    </g>
    <g
       id="g250"
       transform="translate(309.0792,171.6121)">
      <path
         d="m 0,0 -3.627,16.273 -9.909,-2.208 3.627,-16.274 z"
         style="fill:#ffffff;fill-opacity:1;fill-rule:nonzero;stroke:none"
         id="path252" />
    </g>
    <g
       id="g254"
       transform="translate(144.2761,170.6395)">
      <path
         d="m 0,0 1.775,2.677 2.678,-1.775 15.08,-10 5.611,8.462 -15.08,9.999 -2.678,1.776 -8.461,5.61 -5.611,-8.461 -1.775,-2.677 -10,-15.08 8.461,-5.611 z"
         style="fill:#f24a00;fill-opacity:1;fill-rule:nonzero;stroke:none"
         id="path256" />
    </g>
    <g
       id="g262"
       transform="translate(38.6584,113.2171)">
      <path
         d="m 0,0 3.829,-16.227 9.882,2.332 -3.83,16.227 z"
         style="fill:#ffffff;fill-opacity:1;fill-rule:nonzero;stroke:none"
         id="path264" />
    </g>
    <g
       id="g266"
       transform="translate(254.0974,254.8941)">
      <path
         d="M 0,0 -2.332,9.881 -18.42,6.084 -16.088,-3.797 Z"
         style="fill:#f58600;fill-opacity:1;fill-rule:nonzero;stroke:none"
         id="path268" />
    </g>
    <g
       id="g270"
       transform="translate(438.0955,111.5441)">
      <path
         d="m 0,0 2.661,1.799 1.8,-2.661 10.135,-14.989 8.41,5.687 -10.135,14.989 -1.799,2.661 -5.687,8.411 -8.411,-5.687 -2.661,-1.8 -14.989,-10.135 5.687,-8.41 z"
         style="fill:#f24a00;fill-opacity:1;fill-rule:nonzero;stroke:none"
         id="path272" />
    </g>
    <g
       id="g278"
       transform="translate(168.9954,85.8784)">
      <path
         d="m 0,0 -8.41,-5.687 9.259,-13.693 8.41,5.686 z"
         style="fill:#f58600;fill-opacity:1;fill-rule:nonzero;stroke:none"
         id="path280" />
    </g>
    <g
       id="g286"
       transform="translate(94.2806,84.7019)">
      <path
         d="M 0,0 14.335,-8.514 19.519,0.215 5.184,8.729 Z"
         style="fill:#ffffff;fill-opacity:1;fill-rule:nonzero;stroke:none"
         id="path288" />
    </g>
    <g
       id="g290"
       transform="translate(206.5376,205.3642)">
      <path
         d="m 0,0 0.732,-3.128 -3.127,-0.732 -17.618,-4.126 2.315,-9.885 17.617,4.125 3.128,0.733 9.885,2.315 -2.314,9.885 -0.733,3.128 -4.126,17.618 -9.885,-2.315 z"
         style="fill:#f24a00;fill-opacity:1;fill-rule:nonzero;stroke:none"
         id="path292" />
    </g>
    <g
       id="g294"
       transform="translate(59.5598,294.8757)">
      <path
         d="m 0,0 3.107,-1.545 -1.545,-3.106 -8.699,-17.499 9.818,-4.881 8.7,17.499 1.544,3.106 4.881,9.819 -9.818,4.881 -3.107,1.544 -17.499,8.7 -4.881,-9.819 z"
         style="fill:#f24a00;fill-opacity:1;fill-rule:nonzero;stroke:none"
         id="path296" />
    </g>
    <g
       id="g298"
       transform="translate(76.967,286.2218)">
      <path
         d="M 0,0 16.124,-8.016 21.005,1.803 4.881,9.818 Z"
         style="fill:#f24a00;fill-opacity:1;fill-rule:nonzero;stroke:none"
         id="path300" />
    </g>
    <g
       id="g302"
       transform="translate(87.61,318.874)">
      <path
         d="m 0,0 -9.818,4.881 -7.948,-15.986 9.819,-4.881 z"
         style="fill:#f58600;fill-opacity:1;fill-rule:nonzero;stroke:none"
         id="path304" />
    </g>
    <g
       id="g306"
       transform="translate(450.5337,291.4454)">
      <path
         d="M 0,0 H -3.213 V 3.213 21.307 H -13.365 V 3.213 0 -10.153 H -3.213 0 18.094 V 0 Z"
         style="fill:#f24a00;fill-opacity:1;fill-rule:nonzero;stroke:none"
         id="path308" />
    </g>
    <path
       d="m 356.187,210.464 h 10.152 v 16.53 h -10.152 z"
       style="fill:#f58600;fill-opacity:1;fill-rule:nonzero;stroke:none"
       id="path310" />
    <g
       id="g324"
       transform="translate(232.8806,291.6165)">
      <path
         d="M 0,0 -2.227,2.315 0.088,4.542 13.129,17.086 6.091,24.403 -6.95,11.859 -9.265,9.632 l -7.317,-7.038 7.038,-7.317 2.227,-2.315 12.544,-13.041 7.317,7.038 z"
         style="fill:#f24a00;fill-opacity:1;fill-rule:nonzero;stroke:none"
         id="path326" />
    </g>
    <g
       id="g328"
       transform="translate(285.7373,61.1274)">
      <path
         d="M 0,0 7.038,-7.317 18.952,4.142 11.913,11.459 Z"
         style="fill:#f58600;fill-opacity:1;fill-rule:nonzero;stroke:none"
         id="path330" />
    </g>
    <g
       id="g340"
       transform="translate(135.2651,80.3885)">
      <path
         d="M 0,0 11.428,12.139 4.036,19.099 -7.392,6.959 Z"
         style="fill:#ffffff;fill-opacity:1;fill-rule:nonzero;stroke:none"
         id="path342" />
    </g>
    <g
       id="g348"
       transform="translate(375.0147,355.8181)">
      <path
         d="m 0,0 -0.609,-3.154 -3.155,0.609 -17.766,3.432 -1.925,-9.968 17.766,-3.432 3.154,-0.609 9.968,-1.926 1.926,9.968 0.609,3.154 3.433,17.766 -9.969,1.926 z"
         style="fill:#f24a00;fill-opacity:1;fill-rule:nonzero;stroke:none"
         id="path350" />
    </g>
    <g
       id="g352"
       transform="translate(233.7699,58.08)">
      <path
         d="m 0,0 -3.163,-16.37 9.969,-1.926 3.162,16.37 z"
         style="fill:#ffffff;fill-opacity:1;fill-rule:nonzero;stroke:none"
         id="path354" />
    </g>
    <g
       id="g360"
       transform="translate(286.6968,237.4966)">
      <path
         d="M 0,0 16.671,0.179 16.562,10.331 -0.109,10.152 Z"
         style="fill:#ffffff;fill-opacity:1;fill-rule:nonzero;stroke:none"
         id="path362" />
    </g>
    <g
       id="g380">
      <g
         id="g382"
         clip-path="url(#clipPath386)">
        <g
           id="g388"
           transform="translate(87.9671,449.0175)">
          <path
             d="m 0,0 c 0,17.42 13.242,29.243 28.849,29.243 16.79,0 24.199,-10.798 26.012,-18.838 L 43.116,6.7 c -0.867,3.862 -4.414,10.405 -14.267,10.405 -7.488,0 -15.922,-5.36 -15.922,-17.105 0,-10.483 7.725,-16.553 16.08,-16.553 9.695,0 13.557,6.464 14.661,10.484 L 55.57,-9.459 C 53.757,-17.183 46.348,-29.007 29.007,-29.007 12.927,-29.007 0,-17.42 0,0"
             style="fill:#ffffff;fill-opacity:1;fill-rule:nonzero;stroke:none"
             id="path390" />
        </g>
        <g
           id="g392"
           transform="translate(212.3751,441.8939)">
          <path
             d="M 0,0 V 36.339 H 12.675 V 1.043 c 0,-6.899 6.815,-10.348 12.831,-10.348 6.017,0 12.667,3.449 12.667,10.348 V 36.339 H 50.847 V 0 C 50.847,-14.279 38.02,-21.82 25.506,-21.82 12.992,-21.82 0,-14.279 0,0"
             style="fill:#ffffff;fill-opacity:1;fill-rule:nonzero;stroke:none"
             id="path394" />
        </g>
        <g
           id="g396"
           transform="translate(176.3347,452.868)">
          <path
             d="m 0,0 c 5.227,0 8.041,2.895 8.041,6.915 0,4.262 -2.814,6.916 -8.041,6.916 H -7.478 V 0 Z M -2.975,-10.936 H -7.478 V -32.165 H -20.183 V 24.847 H 2.412 c 11.258,0 18.495,-7.719 18.495,-17.851 0,-7.72 -4.262,-13.59 -11.258,-16.083 l 11.58,-23.078 H 7.237 Z"
             style="fill:#ffffff;fill-opacity:1;fill-rule:nonzero;stroke:none"
             id="path398" />
        </g>
        <g
           id="g400"
           transform="translate(296.1029,454.0753)">
          <path
             d="M 0,0 3.109,-3.109 0,-6.218 l -17.511,-17.511 9.825,-9.826 17.511,17.512 3.109,3.109 9.826,9.825 -9.826,9.825 -3.109,3.109 -17.511,17.512 -9.825,-9.826 z"
             style="fill:#f24a00;fill-opacity:1;fill-rule:nonzero;stroke:none"
             id="path402" />
        </g>
        <g
           id="g404"
           transform="translate(313.5225,436.6558)">
          <path
             d="M 0,0 16.135,-16.135 25.96,-6.31 9.825,9.825 Z"
             style="fill:#f58600;fill-opacity:1;fill-rule:nonzero;stroke:none"
             id="path406" />
        </g>
        <g
           id="g408"
           transform="translate(339.4828,471.5865)">
          <path
             d="m 0,0 -9.825,9.825 -15.998,-15.997 9.826,-9.825 z"
             style="fill:#f24a00;fill-opacity:1;fill-rule:nonzero;stroke:none"
             id="path410" />
        </g>
      </g>
    </g>
  </g>
</svg>
