<?xml version="1.0" encoding="UTF-8" standalone="no"?>
<!-- Created with Inkscape (http://www.inkscape.org/) -->

<svg
   version="1.1"
   id="svg18"
   width="230"
   height="230"
   viewBox="0 0 230 230"
   sodipodi:docname="Crux-Assets-V1.ai"
   inkscape:export-filename="Crux-Assets-V1.ai.svg"
   inkscape:export-xdpi="96"
   inkscape:export-ydpi="96"
   xmlns:inkscape="http://www.inkscape.org/namespaces/inkscape"
   xmlns:sodipodi="http://sodipodi.sourceforge.net/DTD/sodipodi-0.dtd"
   xmlns="http://www.w3.org/2000/svg"
   xmlns:svg="http://www.w3.org/2000/svg">
  <defs
     id="defs22">
    <clipPath
       clipPathUnits="userSpaceOnUse"
       id="clipPath458">
      <path
         d="M 0,595.276 H 841.89 V 0 H 0 Z"
         id="path456" />
    </clipPath>
  </defs>
  <sodipodi:namedview
     id="namedview20"
     pagecolor="#ffffff"
     bordercolor="#000000"
     borderopacity="0.25"
     inkscape:showpageshadow="2"
     inkscape:pageopacity="0.0"
     inkscape:pagecheckerboard="0"
     inkscape:deskcolor="#d1d1d1"
     showgrid="false" />
  <g
     id="g418"
     inkscape:groupmode="layer"
     inkscape:label="Page 4"
     transform="matrix(1.3333333,0,0,-1.3333333,-90.455442,641.97025)">
    <g
       id="g436"
       transform="translate(239.9785,427.6937)">
      <path
         d="m 0,0 -34.274,43.659 -47.102,-36.977 -36.977,47.102 -43.66,-34.275 36.977,-47.101 -47.101,-36.978 34.274,-43.659 47.102,36.977 36.977,-47.101 43.659,34.274 -36.977,47.102 z"
         style="fill:#1e1e1e;fill-opacity:1;fill-rule:nonzero;stroke:none"
         id="path438" />
    </g>
    <g
       id="g440"
       transform="translate(127.3208,405.2006)">
      <path
         d="m 0,0 5.713,-7.278 -7.277,-5.713 -40.992,-32.18 18.056,-23 40.992,32.18 7.277,5.714 23,18.055 -18.056,23 -5.713,7.278 -32.18,40.991 -23,-18.056 z"
         style="fill:#f24a00;fill-opacity:1;fill-rule:nonzero;stroke:none"
         id="path442" />
    </g>
    <g
       id="g444"
       transform="translate(159.3326,364.4238)">
      <path
         d="m 0,0 29.651,-37.77 23,18.056 L 23,18.056 Z"
         style="fill:#f58600;fill-opacity:1;fill-rule:nonzero;stroke:none"
         id="path446" />
    </g>
    <g
       id="g448"
       transform="translate(222.3591,430.8728)">
      <path
         d="M 0,0 -18.056,23 -55.504,-6.399 -37.448,-29.398 Z"
         style="fill:#f24a00;fill-opacity:1;fill-rule:nonzero;stroke:none"
         id="path450" />
    </g>
    <g
       id="g454"
       clip-path="url(#clipPath458)">
      <g
         id="g460"
         transform="translate(109.9771,450.5575)">
        <path
           d="m 0,0 c 4.185,3.286 9.523,2.334 12.467,-1.415 3.167,-4.034 1.97,-7.851 0.38,-9.803 l -3.105,2.123 c 0.764,0.937 1.667,3.023 -0.191,5.39 -1.413,1.799 -4.291,2.814 -7.113,0.599 -2.519,-1.977 -2.52,-4.978 -0.944,-6.985 1.829,-2.329 4.11,-2.038 5.284,-1.545 l 1.431,-3.499 C 6.011,-16.156 1.773,-16.606 -1.498,-12.44 -4.531,-8.577 -4.185,-3.286 0,0"
           style="fill:#ffffff;fill-opacity:1;fill-rule:nonzero;stroke:none"
           id="path462" />
      </g>
      <g
         id="g464"
         transform="translate(133.3869,417.2143)">
        <path
           d="m 0,0 8.731,6.854 2.39,-3.045 -8.48,-6.657 C 0.984,-4.15 1.44,-6.438 2.575,-7.883 3.71,-9.329 5.793,-10.276 7.45,-8.974 l 8.481,6.657 2.39,-3.045 -8.731,-6.854 C 6.16,-14.91 1.929,-13.25 -0.432,-10.243 -2.792,-7.237 -3.431,-2.693 0,0"
           style="fill:#ffffff;fill-opacity:1;fill-rule:nonzero;stroke:none"
           id="path466" />
      </g>
      <g
         id="g468"
         transform="translate(128.4613,428.9169)">
        <path
           d="M 0,0 C 0.986,-1.256 2.212,-1.386 3.178,-0.628 4.202,0.176 4.309,1.353 3.323,2.609 L 1.912,4.405 -1.41,1.797 Z m -3.189,-1.348 -0.849,1.082 -5.1,-4.004 -2.397,3.053 L 2.163,9.536 6.425,4.107 C 8.548,1.402 8.058,-1.793 5.624,-3.704 3.769,-5.16 1.555,-5.243 -0.363,-4.032 l -3.361,-7.135 -2.639,3.362 z"
           style="fill:#ffffff;fill-opacity:1;fill-rule:nonzero;stroke:none"
           id="path470" />
      </g>
      <g
         id="g472"
         transform="translate(152.233,399.2336)">
        <path
           d="m 0,0 -0.161,-1.333 -1.333,0.16 -7.51,0.905 -0.507,-4.214 7.51,-0.905 1.333,-0.16 4.214,-0.508 0.507,4.214 0.161,1.334 0.904,7.51 -4.214,0.507 z"
           style="fill:#ffffff;fill-opacity:1;fill-rule:nonzero;stroke:none"
           id="path474" />
      </g>
      <g
         id="g476"
         transform="translate(151.3334,391.7629)">
        <path
           d="m 0,0 -0.833,-6.92 4.213,-0.507 0.834,6.92 z"
           style="fill:#ffffff;fill-opacity:1;fill-rule:nonzero;stroke:none"
           id="path478" />
      </g>
      <g
         id="g480"
         transform="translate(164.6221,392.1142)">
        <path
           d="M 0,0 0.507,4.214 -6.353,5.04 -6.861,0.826 Z"
           style="fill:#ffffff;fill-opacity:1;fill-rule:nonzero;stroke:none"
           id="path482" />
      </g>
      <g
         id="g484"
         transform="translate(448.4842,329.3699)">
        <path
           d="m 0,0 -45.513,31.772 -34.277,-49.102 -49.101,34.277 -31.772,-45.513 49.101,-34.277 -34.277,-49.102 45.513,-31.771 34.277,49.101 49.102,-34.276 31.772,45.512 -49.102,34.277 z"
           style="fill:#ffffff;fill-opacity:1;fill-rule:nonzero;stroke:none"
           id="path486" />
      </g>
      <g
         id="g488"
         transform="translate(347.2763,275.0131)">
        <path
           d="m 0,0 7.587,-5.296 -5.296,-7.587 -29.831,-42.732 23.977,-16.737 29.83,42.732 5.296,7.586 L 48.301,1.943 24.324,18.68 16.737,23.976 -25.995,53.807 -42.732,29.83 Z"
           style="fill:#f24a00;fill-opacity:1;fill-rule:nonzero;stroke:none"
           id="path490" />
      </g>
      <g
         id="g492"
         transform="translate(389.7845,245.339)">
        <path
           d="M 0,0 39.374,-27.486 56.111,-3.51 16.737,23.976 Z"
           style="fill:#f58600;fill-opacity:1;fill-rule:nonzero;stroke:none"
           id="path494" />
      </g>
      <g
         id="g496"
         transform="translate(430.7033,327.2747)">
        <path
           d="M 0,0 -23.976,16.737 -51.228,-22.3 -27.252,-39.038 Z"
           style="fill:#f24a00;fill-opacity:1;fill-rule:nonzero;stroke:none"
           id="path498" />
      </g>
      <g
         id="g500"
         transform="translate(317.464,313.3443)">
        <path
           d="m 0,0 c 3.046,4.363 8.429,5.009 12.338,2.28 4.205,-2.935 4.173,-6.935 3.221,-9.266 L 11.97,-5.86 c 0.458,1.119 0.714,3.377 -1.754,5.1 -1.875,1.309 -4.925,1.441 -6.978,-1.5 -1.833,-2.626 -0.96,-5.496 1.133,-6.957 2.428,-1.695 4.525,-0.752 5.505,0.062 l 2.388,-2.93 C 10.46,-13.702 6.537,-15.368 2.193,-12.336 -1.834,-9.525 -3.046,-4.363 0,0"
           style="fill:#ffffff;fill-opacity:1;fill-rule:nonzero;stroke:none"
           id="path502" />
      </g>
      <g
         id="g504"
         transform="translate(349.5769,288.2734)">
        <path
           d="M 0,0 6.354,9.101 9.528,6.885 3.357,-1.955 C 2.151,-3.683 3.254,-5.738 4.761,-6.79 6.268,-7.842 8.537,-8.141 9.743,-6.413 l 6.171,8.84 3.175,-2.216 -6.354,-9.101 C 10.239,-12.466 5.708,-12.112 2.573,-9.924 -0.561,-7.736 -2.497,-3.576 0,0"
           style="fill:#ffffff;fill-opacity:1;fill-rule:nonzero;stroke:none"
           id="path506" />
      </g>
      <g
         id="g508"
         transform="translate(341.4538,298.0319)">
        <path
           d="M 0,0 C 1.309,-0.914 2.52,-0.681 3.223,0.326 3.968,1.394 3.727,2.55 2.418,3.464 L 0.545,4.772 -1.873,1.307 Z m -2.657,-2.219 -1.128,0.787 -3.712,-5.316 -3.182,2.221 9.968,14.279 5.659,-3.951 C 7.768,3.833 8.231,0.634 6.459,-1.903 5.11,-3.837 3.016,-4.562 0.828,-3.963 l -1.135,-7.804 -3.504,2.446 z"
           style="fill:#ffffff;fill-opacity:1;fill-rule:nonzero;stroke:none"
           id="path510" />
      </g>
      <g
         id="g512"
         transform="translate(372.846,276.5674)">
        <path
           d="m 0,0 0.235,-1.322 -1.322,-0.235 -7.448,-1.325 0.743,-4.178 7.448,1.324 1.322,0.235 4.179,0.743 L 4.414,-0.579 4.179,0.743 2.854,8.19 -1.324,7.447 Z"
           style="fill:#ffffff;fill-opacity:1;fill-rule:nonzero;stroke:none"
           id="path514" />
      </g>
      <g
         id="g516"
         transform="translate(374.1632,269.1589)">
        <path
           d="m 0,0 1.22,-6.862 4.179,0.743 -1.22,6.862 z"
           style="fill:#ffffff;fill-opacity:1;fill-rule:nonzero;stroke:none"
           id="path518" />
      </g>
      <g
         id="g520"
         transform="translate(386.7724,273.3687)">
        <path
           d="M 0,0 -0.743,4.179 -7.547,2.969 -6.804,-1.21 Z"
           style="fill:#ffffff;fill-opacity:1;fill-rule:nonzero;stroke:none"
           id="path522" />
      </g>
    </g>
  </g>
</svg>
